<?xml version="1.0" standalone="no"?>
<!DOCTYPE svg PUBLIC "-//W3C//DTD SVG 20010904//EN"
 "http://www.w3.org/TR/2001/REC-SVG-20010904/DTD/svg10.dtd">
<svg version="1.0" xmlns="http://www.w3.org/2000/svg"
 width="260.000000pt" height="260.000000pt" viewBox="0 0 260.000000 260.000000"
 preserveAspectRatio="xMidYMid meet">
<metadata>
Created by potrace 1.14, written by Peter Selinger 2001-2017
</metadata>
<g transform="translate(0.000000,260.000000) scale(0.100000,-0.100000)"
fill="#000000" stroke="none">
<path d="M270 1410 l0 -470 150 0 150 0 2 217 3 217 66 -214 67 -215 129 -3
129 -3 70 227 69 227 3 -226 2 -227 35 0 35 0 0 54 c0 91 65 157 172 171 l48
7 0 354 0 354 -179 0 -179 0 -30 -82 c-16 -46 -61 -170 -98 -275 -38 -106 -71
-193 -74 -193 -3 0 -50 123 -105 273 l-100 272 -183 3 -182 2 0 -470z"/>
<path d="M1450 1522 l0 -359 41 -18 c22 -10 49 -29 59 -42 17 -22 24 -23 154
-24 156 -1 157 -2 164 -85 4 -53 5 -54 36 -54 91 0 235 69 306 147 83 91 119
189 120 323 1 231 -133 403 -352 455 -46 11 -126 15 -295 15 l-233 0 0 -358z
m488 68 c112 -63 124 -264 21 -343 -41 -30 -97 -47 -161 -47 l-48 0 0 211 0
212 73 -5 c52 -3 86 -12 115 -28z"/>
<path d="M1300 1088 c-36 -18 -48 -32 -59 -63 -12 -36 -12 -45 4 -78 13 -28
30 -42 74 -63 84 -39 86 -40 89 -58 4 -21 -36 -22 -44 -1 -5 11 -22 15 -69 15
-60 0 -63 -1 -57 -22 16 -66 69 -101 152 -101 92 0 150 47 150 121 0 43 -31
75 -104 110 -35 17 -67 35 -71 41 -11 19 27 26 40 8 9 -13 28 -17 75 -17 l62
0 -7 28 c-14 58 -84 101 -165 102 -14 0 -46 -10 -70 -22z"/>
<path d="M1770 1018 c-13 -5 -33 -16 -42 -25 -17 -15 -18 -15 -18 5 0 20 -5
22 -66 22 l-67 0 7 -61 c3 -34 6 -102 6 -150 l0 -89 54 0 54 0 4 76 c4 86 17
104 75 104 l33 0 0 59 c0 33 -3 62 -7 64 -5 3 -19 0 -33 -5z"/>
<path d="M1852 814 c-35 -25 -28 -70 15 -93 33 -17 51 -14 78 14 30 29 31 49
5 75 -24 24 -67 26 -98 4z"/>
</g>
</svg>
